<svg xmlns="http://www.w3.org/2000/svg" width="1320" height="560" viewBox="0 0 1320 560">
<style>
text{font-family:Arial,Helvetica,sans-serif;fill:#1f2937} .small{font-size:12px}.tiny{font-size:10px}.title{font-size:22px;font-weight:700} .axis{stroke:#475569;stroke-width:1}.grid{stroke:#e2e8f0;stroke-width:1} </style>
<rect x="0" y="0" width="1320" height="560" fill="#ffffff"/>
<text x="76" y="36" class="title">Top 100 gaze-head scores</text>
<text x="76" y="56" class="small">Merged 500-comic discovery run. Higher score means stronger diagonal panel attention.</text>
<line x1="76" y1="450.00" x2="1286" y2="450.00" class="grid"/>
<text x="66" y="454.00" text-anchor="end" class="small">0.000</text>
<line x1="76" y1="354.50" x2="1286" y2="354.50" class="grid"/>
<text x="66" y="358.50" text-anchor="end" class="small">0.040</text>
<line x1="76" y1="259.00" x2="1286" y2="259.00" class="grid"/>
<text x="66" y="263.00" text-anchor="end" class="small">0.079</text>
<line x1="76" y1="163.50" x2="1286" y2="163.50" class="grid"/>
<text x="66" y="167.50" text-anchor="end" class="small">0.119</text>
<line x1="76" y1="68.00" x2="1286" y2="68.00" class="grid"/>
<text x="66" y="72.00" text-anchor="end" class="small">0.158</text>
<line x1="76" y1="68" x2="76" y2="450" class="axis"/>
<line x1="76" y1="450" x2="1286" y2="450" class="axis"/>
<rect x="76.00" y="68.00" width="10.12" height="382.00" fill="#2563eb"/>
<text x="81.06" y="468" text-anchor="end" transform="rotate(-55 81.06,468)" class="tiny">L5H10</text>
<rect x="88.12" y="216.94" width="10.12" height="233.06" fill="#64748b"/>
<rect x="100.24" y="217.25" width="10.12" height="232.75" fill="#0f766e"/>
<rect x="112.36" y="225.09" width="10.12" height="224.91" fill="#64748b"/>
<rect x="124.48" y="234.39" width="10.12" height="215.61" fill="#64748b"/>
<rect x="136.60" y="236.14" width="10.12" height="213.86" fill="#0f766e"/>
<text x="141.66" y="468" text-anchor="end" transform="rotate(-55 141.66,468)" class="tiny">L32H9</text>
<rect x="148.72" y="252.08" width="10.12" height="197.92" fill="#0f766e"/>
<rect x="160.84" y="253.63" width="10.12" height="196.37" fill="#0f766e"/>
<rect x="172.96" y="261.25" width="10.12" height="188.75" fill="#0f766e"/>
<rect x="185.08" y="262.14" width="10.12" height="187.86" fill="#64748b"/>
<rect x="197.20" y="266.20" width="10.12" height="183.80" fill="#0f766e"/>
<text x="202.26" y="468" text-anchor="end" transform="rotate(-55 202.26,468)" class="tiny">L33H1</text>
<rect x="209.32" y="272.49" width="10.12" height="177.51" fill="#64748b"/>
<rect x="221.44" y="273.20" width="10.12" height="176.80" fill="#0f766e"/>
<rect x="233.56" y="276.40" width="10.12" height="173.60" fill="#0f766e"/>
<rect x="245.68" y="283.01" width="10.12" height="166.99" fill="#0f766e"/>
<rect x="257.80" y="284.34" width="10.12" height="165.66" fill="#0f766e"/>
<text x="262.86" y="468" text-anchor="end" transform="rotate(-55 262.86,468)" class="tiny">L33H11</text>
<rect x="269.92" y="285.31" width="10.12" height="164.69" fill="#0f766e"/>
<rect x="282.04" y="287.99" width="10.12" height="162.01" fill="#64748b"/>
<rect x="294.16" y="289.27" width="10.12" height="160.73" fill="#64748b"/>
<rect x="306.28" y="297.46" width="10.12" height="152.54" fill="#0f766e"/>
<rect x="318.40" y="302.33" width="10.12" height="147.67" fill="#64748b"/>
<text x="323.46" y="468" text-anchor="end" transform="rotate(-55 323.46,468)" class="tiny">L32H2</text>
<rect x="330.52" y="302.47" width="10.12" height="147.53" fill="#64748b"/>
<rect x="342.64" y="302.94" width="10.12" height="147.06" fill="#64748b"/>
<rect x="354.76" y="304.24" width="10.12" height="145.76" fill="#64748b"/>
<rect x="366.88" y="311.77" width="10.12" height="138.23" fill="#64748b"/>
<rect x="379.00" y="313.06" width="10.12" height="136.94" fill="#64748b"/>
<text x="384.06" y="468" text-anchor="end" transform="rotate(-55 384.06,468)" class="tiny">L33H5</text>
<rect x="391.12" y="313.40" width="10.12" height="136.60" fill="#64748b"/>
<rect x="403.24" y="315.89" width="10.12" height="134.11" fill="#64748b"/>
<rect x="415.36" y="316.21" width="10.12" height="133.79" fill="#64748b"/>
<rect x="427.48" y="320.53" width="10.12" height="129.47" fill="#64748b"/>
<rect x="439.60" y="324.85" width="10.12" height="125.15" fill="#64748b"/>
<text x="444.66" y="468" text-anchor="end" transform="rotate(-55 444.66,468)" class="tiny">L33H7</text>
<rect x="451.72" y="325.83" width="10.12" height="124.17" fill="#64748b"/>
<rect x="463.84" y="327.87" width="10.12" height="122.13" fill="#64748b"/>
<rect x="475.96" y="328.01" width="10.12" height="121.99" fill="#64748b"/>
<rect x="488.08" y="329.98" width="10.12" height="120.02" fill="#64748b"/>
<rect x="500.20" y="337.11" width="10.12" height="112.89" fill="#64748b"/>
<text x="505.26" y="468" text-anchor="end" transform="rotate(-55 505.26,468)" class="tiny">L32H13</text>
<rect x="512.32" y="338.32" width="10.12" height="111.68" fill="#64748b"/>
<rect x="524.44" y="347.03" width="10.12" height="102.97" fill="#64748b"/>
<rect x="536.56" y="347.85" width="10.12" height="102.15" fill="#64748b"/>
<rect x="548.68" y="350.19" width="10.12" height="99.81" fill="#64748b"/>
<rect x="560.80" y="353.52" width="10.12" height="96.48" fill="#64748b"/>
<text x="565.86" y="468" text-anchor="end" transform="rotate(-55 565.86,468)" class="tiny">L33H10</text>
<rect x="572.92" y="354.80" width="10.12" height="95.20" fill="#64748b"/>
<rect x="585.04" y="355.44" width="10.12" height="94.56" fill="#64748b"/>
<rect x="597.16" y="356.11" width="10.12" height="93.89" fill="#64748b"/>
<rect x="609.28" y="357.09" width="10.12" height="92.91" fill="#64748b"/>
<rect x="621.40" y="357.73" width="10.12" height="92.27" fill="#64748b"/>
<text x="626.46" y="468" text-anchor="end" transform="rotate(-55 626.46,468)" class="tiny">L35H13</text>
<rect x="633.52" y="358.78" width="10.12" height="91.22" fill="#64748b"/>
<rect x="645.64" y="359.41" width="10.12" height="90.59" fill="#64748b"/>
<rect x="657.76" y="362.17" width="10.12" height="87.83" fill="#64748b"/>
<rect x="669.88" y="363.96" width="10.12" height="86.04" fill="#64748b"/>
<rect x="682.00" y="365.01" width="10.12" height="84.99" fill="#64748b"/>
<text x="687.06" y="468" text-anchor="end" transform="rotate(-55 687.06,468)" class="tiny">L33H13</text>
<rect x="694.12" y="365.18" width="10.12" height="84.82" fill="#64748b"/>
<rect x="706.24" y="366.25" width="10.12" height="83.75" fill="#64748b"/>
<rect x="718.36" y="366.87" width="10.12" height="83.13" fill="#64748b"/>
<rect x="730.48" y="367.21" width="10.12" height="82.79" fill="#64748b"/>
<rect x="742.60" y="367.73" width="10.12" height="82.27" fill="#64748b"/>
<text x="747.66" y="468" text-anchor="end" transform="rotate(-55 747.66,468)" class="tiny">L13H14</text>
<rect x="754.72" y="370.25" width="10.12" height="79.75" fill="#64748b"/>
<rect x="766.84" y="370.80" width="10.12" height="79.20" fill="#64748b"/>
<rect x="778.96" y="372.18" width="10.12" height="77.82" fill="#64748b"/>
<rect x="791.08" y="375.18" width="10.12" height="74.82" fill="#64748b"/>
<rect x="803.20" y="377.16" width="10.12" height="72.84" fill="#64748b"/>
<text x="808.26" y="468" text-anchor="end" transform="rotate(-55 808.26,468)" class="tiny">L11H12</text>
<rect x="815.32" y="377.76" width="10.12" height="72.24" fill="#64748b"/>
<rect x="827.44" y="377.79" width="10.12" height="72.21" fill="#64748b"/>
<rect x="839.56" y="380.75" width="10.12" height="69.25" fill="#64748b"/>
<rect x="851.68" y="381.07" width="10.12" height="68.93" fill="#64748b"/>
<rect x="863.80" y="383.57" width="10.12" height="66.43" fill="#64748b"/>
<text x="868.86" y="468" text-anchor="end" transform="rotate(-55 868.86,468)" class="tiny">L9H4</text>
<rect x="875.92" y="383.68" width="10.12" height="66.32" fill="#64748b"/>
<rect x="888.04" y="384.56" width="10.12" height="65.44" fill="#64748b"/>
<rect x="900.16" y="385.20" width="10.12" height="64.80" fill="#64748b"/>
<rect x="912.28" y="385.41" width="10.12" height="64.59" fill="#64748b"/>
<rect x="924.40" y="386.35" width="10.12" height="63.65" fill="#64748b"/>
<text x="929.46" y="468" text-anchor="end" transform="rotate(-55 929.46,468)" class="tiny">L7H14</text>
<rect x="936.52" y="386.56" width="10.12" height="63.44" fill="#64748b"/>
<rect x="948.64" y="387.39" width="10.12" height="62.61" fill="#64748b"/>
<rect x="960.76" y="388.61" width="10.12" height="61.39" fill="#64748b"/>
<rect x="972.88" y="388.94" width="10.12" height="61.06" fill="#64748b"/>
<rect x="985.00" y="390.58" width="10.12" height="59.42" fill="#64748b"/>
<text x="990.06" y="468" text-anchor="end" transform="rotate(-55 990.06,468)" class="tiny">L9H12</text>
<rect x="997.12" y="392.06" width="10.12" height="57.94" fill="#64748b"/>
<rect x="1009.24" y="392.74" width="10.12" height="57.26" fill="#64748b"/>
<rect x="1021.36" y="392.74" width="10.12" height="57.26" fill="#64748b"/>
<rect x="1033.48" y="393.34" width="10.12" height="56.66" fill="#64748b"/>
<rect x="1045.60" y="393.80" width="10.12" height="56.20" fill="#64748b"/>
<text x="1050.66" y="468" text-anchor="end" transform="rotate(-55 1050.66,468)" class="tiny">L35H15</text>
<rect x="1057.72" y="393.84" width="10.12" height="56.16" fill="#64748b"/>
<rect x="1069.84" y="394.62" width="10.12" height="55.38" fill="#64748b"/>
<rect x="1081.96" y="395.10" width="10.12" height="54.90" fill="#64748b"/>
<rect x="1094.08" y="396.12" width="10.12" height="53.88" fill="#64748b"/>
<rect x="1106.20" y="397.50" width="10.12" height="52.50" fill="#64748b"/>
<text x="1111.26" y="468" text-anchor="end" transform="rotate(-55 1111.26,468)" class="tiny">L13H5</text>
<rect x="1118.32" y="397.91" width="10.12" height="52.09" fill="#64748b"/>
<rect x="1130.44" y="398.04" width="10.12" height="51.96" fill="#64748b"/>
<rect x="1142.56" y="399.16" width="10.12" height="50.84" fill="#64748b"/>
<rect x="1154.68" y="399.86" width="10.12" height="50.14" fill="#64748b"/>
<rect x="1166.80" y="400.23" width="10.12" height="49.77" fill="#64748b"/>
<text x="1171.86" y="468" text-anchor="end" transform="rotate(-55 1171.86,468)" class="tiny">L1H14</text>
<rect x="1178.92" y="400.70" width="10.12" height="49.30" fill="#64748b"/>
<rect x="1191.04" y="400.75" width="10.12" height="49.25" fill="#64748b"/>
<rect x="1203.16" y="401.40" width="10.12" height="48.60" fill="#64748b"/>
<rect x="1215.28" y="402.21" width="10.12" height="47.79" fill="#64748b"/>
<rect x="1227.40" y="402.48" width="10.12" height="47.52" fill="#64748b"/>
<text x="1232.46" y="468" text-anchor="end" transform="rotate(-55 1232.46,468)" class="tiny">L12H6</text>
<rect x="1239.52" y="402.93" width="10.12" height="47.07" fill="#64748b"/>
<rect x="1251.64" y="403.36" width="10.12" height="46.64" fill="#64748b"/>
<rect x="1263.76" y="403.42" width="10.12" height="46.58" fill="#64748b"/>
<rect x="1275.88" y="403.47" width="10.12" height="46.53" fill="#64748b"/>
</svg>
