<svg xmlns="http://www.w3.org/2000/svg" width="900" height="616" viewBox="0 0 900 616">
<style>
text{font-family:Arial,Helvetica,sans-serif;fill:#1f2937} .small{font-size:12px}.tiny{font-size:10px}.title{font-size:22px;font-weight:700} .axis{stroke:#475569;stroke-width:1}.grid{stroke:#e2e8f0;stroke-width:1} </style>
<rect x="0" y="0" width="900" height="616" fill="#ffffff"/>
<text x="90" y="36" class="title">Top-20 stability across shards</text>
<text x="90" y="56" class="small">Cells show how many of 10 shards placed each head in top-k buckets.</text>
<text x="112.0" y="64" text-anchor="middle" class="small">top5</text>
<text x="156.0" y="64" text-anchor="middle" class="small">top10</text>
<text x="200.0" y="64" text-anchor="middle" class="small">top20</text>
<text x="244.0" y="64" text-anchor="middle" class="small">top50</text>
<text x="78" y="92" text-anchor="end" class="small">L5H10</text>
<rect x="90" y="76" width="42" height="22" fill="#15803d"/>
<text x="112.0" y="92" text-anchor="middle" class="tiny">10</text>
<rect x="134" y="76" width="42" height="22" fill="#15803d"/>
<text x="156.0" y="92" text-anchor="middle" class="tiny">10</text>
<rect x="178" y="76" width="42" height="22" fill="#15803d"/>
<text x="200.0" y="92" text-anchor="middle" class="tiny">10</text>
<rect x="222" y="76" width="42" height="22" fill="#15803d"/>
<text x="244.0" y="92" text-anchor="middle" class="tiny">10</text>
<text x="78" y="116" text-anchor="end" class="small">L0H14</text>
<rect x="90" y="100" width="42" height="22" fill="#15803d"/>
<text x="112.0" y="116" text-anchor="middle" class="tiny">10</text>
<rect x="134" y="100" width="42" height="22" fill="#15803d"/>
<text x="156.0" y="116" text-anchor="middle" class="tiny">10</text>
<rect x="178" y="100" width="42" height="22" fill="#15803d"/>
<text x="200.0" y="116" text-anchor="middle" class="tiny">10</text>
<rect x="222" y="100" width="42" height="22" fill="#15803d"/>
<text x="244.0" y="116" text-anchor="middle" class="tiny">10</text>
<text x="78" y="140" text-anchor="end" class="small">L33H14</text>
<rect x="90" y="124" width="42" height="22" fill="#15803d"/>
<text x="112.0" y="140" text-anchor="middle" class="tiny">10</text>
<rect x="134" y="124" width="42" height="22" fill="#15803d"/>
<text x="156.0" y="140" text-anchor="middle" class="tiny">10</text>
<rect x="178" y="124" width="42" height="22" fill="#15803d"/>
<text x="200.0" y="140" text-anchor="middle" class="tiny">10</text>
<rect x="222" y="124" width="42" height="22" fill="#15803d"/>
<text x="244.0" y="140" text-anchor="middle" class="tiny">10</text>
<text x="78" y="164" text-anchor="end" class="small">L10H12</text>
<rect x="90" y="148" width="42" height="22" fill="#15803d"/>
<text x="112.0" y="164" text-anchor="middle" class="tiny">10</text>
<rect x="134" y="148" width="42" height="22" fill="#15803d"/>
<text x="156.0" y="164" text-anchor="middle" class="tiny">10</text>
<rect x="178" y="148" width="42" height="22" fill="#15803d"/>
<text x="200.0" y="164" text-anchor="middle" class="tiny">10</text>
<rect x="222" y="148" width="42" height="22" fill="#15803d"/>
<text x="244.0" y="164" text-anchor="middle" class="tiny">10</text>
<text x="78" y="188" text-anchor="end" class="small">L12H10</text>
<rect x="90" y="172" width="42" height="22" fill="#409961"/>
<text x="112.0" y="188" text-anchor="middle" class="tiny">8</text>
<rect x="134" y="172" width="42" height="22" fill="#15803d"/>
<text x="156.0" y="188" text-anchor="middle" class="tiny">10</text>
<rect x="178" y="172" width="42" height="22" fill="#15803d"/>
<text x="200.0" y="188" text-anchor="middle" class="tiny">10</text>
<rect x="222" y="172" width="42" height="22" fill="#15803d"/>
<text x="244.0" y="188" text-anchor="middle" class="tiny">10</text>
<text x="78" y="212" text-anchor="end" class="small">L32H9</text>
<rect x="90" y="196" width="42" height="22" fill="#c4e4cf"/>
<text x="112.0" y="212" text-anchor="middle" class="tiny">2</text>
<rect x="134" y="196" width="42" height="22" fill="#15803d"/>
<text x="156.0" y="212" text-anchor="middle" class="tiny">10</text>
<rect x="178" y="196" width="42" height="22" fill="#15803d"/>
<text x="200.0" y="212" text-anchor="middle" class="tiny">10</text>
<rect x="222" y="196" width="42" height="22" fill="#15803d"/>
<text x="244.0" y="212" text-anchor="middle" class="tiny">10</text>
<text x="78" y="236" text-anchor="end" class="small">L32H6</text>
<rect x="90" y="220" width="42" height="22" fill="#f0fdf4"/>
<text x="112.0" y="236" text-anchor="middle" class="tiny">0</text>
<rect x="134" y="220" width="42" height="22" fill="#15803d"/>
<text x="156.0" y="236" text-anchor="middle" class="tiny">10</text>
<rect x="178" y="220" width="42" height="22" fill="#15803d"/>
<text x="200.0" y="236" text-anchor="middle" class="tiny">10</text>
<rect x="222" y="220" width="42" height="22" fill="#15803d"/>
<text x="244.0" y="236" text-anchor="middle" class="tiny">10</text>
<text x="78" y="260" text-anchor="end" class="small">L33H2</text>
<rect x="90" y="244" width="42" height="22" fill="#f0fdf4"/>
<text x="112.0" y="260" text-anchor="middle" class="tiny">0</text>
<rect x="134" y="244" width="42" height="22" fill="#15803d"/>
<text x="156.0" y="260" text-anchor="middle" class="tiny">10</text>
<rect x="178" y="244" width="42" height="22" fill="#15803d"/>
<text x="200.0" y="260" text-anchor="middle" class="tiny">10</text>
<rect x="222" y="244" width="42" height="22" fill="#15803d"/>
<text x="244.0" y="260" text-anchor="middle" class="tiny">10</text>
<text x="78" y="284" text-anchor="end" class="small">L33H0</text>
<rect x="90" y="268" width="42" height="22" fill="#f0fdf4"/>
<text x="112.0" y="284" text-anchor="middle" class="tiny">0</text>
<rect x="134" y="268" width="42" height="22" fill="#409961"/>
<text x="156.0" y="284" text-anchor="middle" class="tiny">8</text>
<rect x="178" y="268" width="42" height="22" fill="#15803d"/>
<text x="200.0" y="284" text-anchor="middle" class="tiny">10</text>
<rect x="222" y="268" width="42" height="22" fill="#15803d"/>
<text x="244.0" y="284" text-anchor="middle" class="tiny">10</text>
<text x="78" y="308" text-anchor="end" class="small">L11H1</text>
<rect x="90" y="292" width="42" height="22" fill="#f0fdf4"/>
<text x="112.0" y="308" text-anchor="middle" class="tiny">0</text>
<rect x="134" y="292" width="42" height="22" fill="#409961"/>
<text x="156.0" y="308" text-anchor="middle" class="tiny">8</text>
<rect x="178" y="292" width="42" height="22" fill="#15803d"/>
<text x="200.0" y="308" text-anchor="middle" class="tiny">10</text>
<rect x="222" y="292" width="42" height="22" fill="#15803d"/>
<text x="244.0" y="308" text-anchor="middle" class="tiny">10</text>
<text x="78" y="332" text-anchor="end" class="small">L33H1</text>
<rect x="90" y="316" width="42" height="22" fill="#f0fdf4"/>
<text x="112.0" y="332" text-anchor="middle" class="tiny">0</text>
<rect x="134" y="316" width="42" height="22" fill="#c4e4cf"/>
<text x="156.0" y="332" text-anchor="middle" class="tiny">2</text>
<rect x="178" y="316" width="42" height="22" fill="#15803d"/>
<text x="200.0" y="332" text-anchor="middle" class="tiny">10</text>
<rect x="222" y="316" width="42" height="22" fill="#15803d"/>
<text x="244.0" y="332" text-anchor="middle" class="tiny">10</text>
<text x="78" y="356" text-anchor="end" class="small">L2H1</text>
<rect x="90" y="340" width="42" height="22" fill="#f0fdf4"/>
<text x="112.0" y="356" text-anchor="middle" class="tiny">0</text>
<rect x="134" y="340" width="42" height="22" fill="#daf0e1"/>
<text x="156.0" y="356" text-anchor="middle" class="tiny">1</text>
<rect x="178" y="340" width="42" height="22" fill="#2a8c4f"/>
<text x="200.0" y="356" text-anchor="middle" class="tiny">9</text>
<rect x="222" y="340" width="42" height="22" fill="#15803d"/>
<text x="244.0" y="356" text-anchor="middle" class="tiny">10</text>
<text x="78" y="380" text-anchor="end" class="small">L32H0</text>
<rect x="90" y="364" width="42" height="22" fill="#f0fdf4"/>
<text x="112.0" y="380" text-anchor="middle" class="tiny">0</text>
<rect x="134" y="364" width="42" height="22" fill="#f0fdf4"/>
<text x="156.0" y="380" text-anchor="middle" class="tiny">0</text>
<rect x="178" y="364" width="42" height="22" fill="#15803d"/>
<text x="200.0" y="380" text-anchor="middle" class="tiny">10</text>
<rect x="222" y="364" width="42" height="22" fill="#15803d"/>
<text x="244.0" y="380" text-anchor="middle" class="tiny">10</text>
<text x="78" y="404" text-anchor="end" class="small">L32H10</text>
<rect x="90" y="388" width="42" height="22" fill="#f0fdf4"/>
<text x="112.0" y="404" text-anchor="middle" class="tiny">0</text>
<rect x="134" y="388" width="42" height="22" fill="#daf0e1"/>
<text x="156.0" y="404" text-anchor="middle" class="tiny">1</text>
<rect x="178" y="388" width="42" height="22" fill="#15803d"/>
<text x="200.0" y="404" text-anchor="middle" class="tiny">10</text>
<rect x="222" y="388" width="42" height="22" fill="#15803d"/>
<text x="244.0" y="404" text-anchor="middle" class="tiny">10</text>
<text x="78" y="428" text-anchor="end" class="small">L33H4</text>
<rect x="90" y="412" width="42" height="22" fill="#f0fdf4"/>
<text x="112.0" y="428" text-anchor="middle" class="tiny">0</text>
<rect x="134" y="412" width="42" height="22" fill="#f0fdf4"/>
<text x="156.0" y="428" text-anchor="middle" class="tiny">0</text>
<rect x="178" y="412" width="42" height="22" fill="#15803d"/>
<text x="200.0" y="428" text-anchor="middle" class="tiny">10</text>
<rect x="222" y="412" width="42" height="22" fill="#15803d"/>
<text x="244.0" y="428" text-anchor="middle" class="tiny">10</text>
<text x="78" y="452" text-anchor="end" class="small">L33H11</text>
<rect x="90" y="436" width="42" height="22" fill="#f0fdf4"/>
<text x="112.0" y="452" text-anchor="middle" class="tiny">0</text>
<rect x="134" y="436" width="42" height="22" fill="#f0fdf4"/>
<text x="156.0" y="452" text-anchor="middle" class="tiny">0</text>
<rect x="178" y="436" width="42" height="22" fill="#15803d"/>
<text x="200.0" y="452" text-anchor="middle" class="tiny">10</text>
<rect x="222" y="436" width="42" height="22" fill="#15803d"/>
<text x="244.0" y="452" text-anchor="middle" class="tiny">10</text>
<text x="78" y="476" text-anchor="end" class="small">L32H14</text>
<rect x="90" y="460" width="42" height="22" fill="#f0fdf4"/>
<text x="112.0" y="476" text-anchor="middle" class="tiny">0</text>
<rect x="134" y="460" width="42" height="22" fill="#f0fdf4"/>
<text x="156.0" y="476" text-anchor="middle" class="tiny">0</text>
<rect x="178" y="460" width="42" height="22" fill="#15803d"/>
<text x="200.0" y="476" text-anchor="middle" class="tiny">10</text>
<rect x="222" y="460" width="42" height="22" fill="#15803d"/>
<text x="244.0" y="476" text-anchor="middle" class="tiny">10</text>
<text x="78" y="500" text-anchor="end" class="small">L11H3</text>
<rect x="90" y="484" width="42" height="22" fill="#f0fdf4"/>
<text x="112.0" y="500" text-anchor="middle" class="tiny">0</text>
<rect x="134" y="484" width="42" height="22" fill="#f0fdf4"/>
<text x="156.0" y="500" text-anchor="middle" class="tiny">0</text>
<rect x="178" y="484" width="42" height="22" fill="#2a8c4f"/>
<text x="200.0" y="500" text-anchor="middle" class="tiny">9</text>
<rect x="222" y="484" width="42" height="22" fill="#15803d"/>
<text x="244.0" y="500" text-anchor="middle" class="tiny">10</text>
<text x="78" y="524" text-anchor="end" class="small">L9H13</text>
<rect x="90" y="508" width="42" height="22" fill="#f0fdf4"/>
<text x="112.0" y="524" text-anchor="middle" class="tiny">0</text>
<rect x="134" y="508" width="42" height="22" fill="#f0fdf4"/>
<text x="156.0" y="524" text-anchor="middle" class="tiny">0</text>
<rect x="178" y="508" width="42" height="22" fill="#2a8c4f"/>
<text x="200.0" y="524" text-anchor="middle" class="tiny">9</text>
<rect x="222" y="508" width="42" height="22" fill="#15803d"/>
<text x="244.0" y="524" text-anchor="middle" class="tiny">10</text>
<text x="78" y="548" text-anchor="end" class="small">L33H9</text>
<rect x="90" y="532" width="42" height="22" fill="#f0fdf4"/>
<text x="112.0" y="548" text-anchor="middle" class="tiny">0</text>
<rect x="134" y="532" width="42" height="22" fill="#f0fdf4"/>
<text x="156.0" y="548" text-anchor="middle" class="tiny">0</text>
<rect x="178" y="532" width="42" height="22" fill="#2a8c4f"/>
<text x="200.0" y="548" text-anchor="middle" class="tiny">9</text>
<rect x="222" y="532" width="42" height="22" fill="#15803d"/>
<text x="244.0" y="548" text-anchor="middle" class="tiny">10</text>
</svg>
